<?xml version="1.0" encoding="utf-8"?>
<!-- Generator: Adobe Illustrator 25.2.1, SVG Export Plug-In . SVG Version: 6.00 Build 0)  -->
<svg version="1.1" id="Layer_1" xmlns="http://www.w3.org/2000/svg" xmlns:xlink="http://www.w3.org/1999/xlink" x="0px" y="0px"
	 viewBox="0 0 488 484" style="enable-background:new 0 0 488 484;" xml:space="preserve">
<style type="text/css">
	.st0{fill:#FFFFFF;}
</style>
<g>
	<path class="st0" d="M240.43,425c100.22,0.05,180.19-79.36,180.45-179.18c0.26-100.13-80.65-180.93-181.05-180.79
		C141.57,65.15,60.99,146.18,61,244.86C61.02,344.89,140.76,424.95,240.43,425z"/>
	<path d="M240.43,425C140.76,424.95,61.02,344.89,61,244.86c-0.02-98.68,80.56-179.72,178.83-179.84
		c100.39-0.13,181.3,80.67,181.05,180.79C420.62,345.64,340.65,425.05,240.43,425z M369.75,331.21
		c45.05-60.56,32.62-152.46-26.74-204.16c-60.9-53.03-153.27-50.13-211.17,6.63c-53.87,52.81-63.04,144.74-19.63,196.75
		C213.07,259.75,282.48,259.8,369.75,331.21z"/>
	<path d="M312.94,185.35C312.81,224.54,293,310,241,310c-59,0-72.07-85.52-71.98-125.33c0.09-38.98,32.56-71.49,71.57-71.64
		C280.4,112.87,313.07,145.53,312.94,185.35z"/>
</g>
</svg>
