<?xml version="1.0" encoding="utf-8"?>
<!-- Generator: Adobe Illustrator 25.2.3, SVG Export Plug-In . SVG Version: 6.00 Build 0)  -->
<svg version="1.1" id="Layer_1" xmlns="http://www.w3.org/2000/svg" xmlns:xlink="http://www.w3.org/1999/xlink" x="0px" y="0px"
	 viewBox="0 0 175.2 163.5" style="enable-background:new 0 0 175.2 163.5;" xml:space="preserve">
<style type="text/css">
	.st0{fill:#FFFFFF;}
</style>
<g id="BjOxv5_1_">
	<g>
		<path d="M21.7,145c2.6-6.4,5-12.5,7.5-18.6c3.1-7.6,6.2-15.3,9.3-22.9c0.3-0.7,0.7-1.4,1.2-1.9C57,83.8,74.3,66.1,91.6,48.4
			c8.2-8.4,16.4-16.9,24.7-25.3c10.4-10.4,14.3-6.4,20.2-1.1c1.9,1.7,3.7,3.5,5.3,5.4c4.9,5.8,9.5,9.4-0.7,20.2
			c-9.6,10-19.3,19.9-29,29.8c-16,16.4-32,32.8-48,49.2c-0.5,0.5-1.2,1-1.9,1.3c-13.1,5.6-26.2,11.2-39.3,16.8
			C22.6,144.7,22.3,144.8,21.7,145z M55.8,115C76,94.4,96,73.8,115.9,53.4c-1.6-1.7-3.3-3.4-4.8-5C91.1,68.9,71.1,89.5,51,110
			C52.6,111.7,54.3,113.4,55.8,115z M62.7,121.9c20.1-20.6,40.1-41.2,60.2-61.7c-1.3-1.3-2.7-2.8-4-4.1
			c-20,20.6-40.1,41.2-60.1,61.7C60,119.1,61.3,120.6,62.7,121.9z M48.2,107.1c20.1-20.6,40.2-41.2,60.2-61.7
			c-1.3-1.3-2.7-2.7-3.9-4c-20,20.6-40.1,41.2-60.2,61.8C45.5,104.5,46.9,105.8,48.2,107.1z M39.8,106c-4,8-6.6,13.4-12.5,27.5
			c-0.7,2-0.4,2.8,1.6,4.5c1.5,1.6,2.1,2,7.5-0.5c3.1-1.3,6.1-2.8,6.8-3.1c6-2.6,2.3-0.8,11.2-5c2.2-1.2,5.3-2.7,5.5-2.8
			C53.9,120.4,45.8,112.2,39.8,106z M127.4,55.8c-6.3-6.4-12.4-12.8-18.5-19c-0.6,0.5-1.3,1.1-1.8,1.5c6.3,6.4,12.5,12.8,18.7,19.2
			C126.3,57,126.9,56.3,127.4,55.8z M111.6,33.7c6.3,6.4,12.4,12.8,18.5,19.1c0.6-0.5,1.2-1.1,1.7-1.6c-6.2-6.4-12.4-12.8-18.6-19.1
			C112.7,32.6,112.1,33.2,111.6,33.7z"/>
		<path class="st0" d="M55.8,115c-1.6-1.6-3.2-3.4-4.8-5c20-20.5,40.1-41.1,60.1-61.7c1.5,1.6,3.2,3.3,4.8,5
			C96,73.8,76,94.4,55.8,115z"/>
		<path class="st0" d="M62.7,121.9c-1.3-1.4-2.7-2.8-4-4.1c20-20.5,40.1-41.1,60.1-61.7c1.3,1.4,2.7,2.8,4,4.1
			C102.8,80.7,82.7,101.3,62.7,121.9z"/>
		<path class="st0" d="M48.2,107.1c-1.3-1.3-2.7-2.7-3.9-4C64.3,82.6,84.4,62,104.4,41.4c1.2,1.3,2.6,2.7,3.9,4
			C88.3,65.9,68.3,86.5,48.2,107.1z"/>
		<path class="st0" d="M129,54.3c-0.5,0.5-3.2,3.4-3.7,3.9c-6.2-6.4-12.7-13.1-19-19.5c0.5-0.4,3.2-3.1,3.8-3.6
			C114.9,39.8,122.8,47.9,129,54.3z"/>
		<path class="st0" d="M114.5,31.1c0.5-0.5,4.6-4.5,5.1-5c6.2,6.3,12.3,12.7,18.6,19.1c-0.5,0.5-4.6,4.5-5.1,5
			C126.9,43.9,120.7,37.5,114.5,31.1z"/>
	</g>
</g>
</svg>
